# xmcd
#
# Track frame offsets:
#	150
#	14402
#	33682
#	58072
#	71992
#	83532
#	96462
#	109222
#	124125
#	135257
#	149952
#	162247
#	176032
#	187547
#	198455
#	210150
#	222845
#	235700
#
# Disc length: 3332
#
# Revision: 3
# Processed by: cddbd v1.5.1PL0 Copyright (c) Steve Scherf et al.
# Submitted via: audiograbber 1.80.04
# Normalized: r2:DSETVAR1
#
DISCID=070d0212
DTITLE=Various Artist - Blues and Soul Legends CD 1
DYEAR=1996
DGENRE=Blues
TTITLE0=Howlin' Wolf - Somkestack Lightin'
TTITLE1=John Lee Hooker - Boom Boom
TTITLE2=B B King - The Thrill Is Gone
TTITLE3=Etta James - I Just Wanna Make Love To You
TTITLE4=Sam and Dave - Soul Man
TTITLE5=Fontella Bass - Rescue Me
TTITLE6=Al Green - Tired Of Being Alone
TTITLE7=Ramsey Lewis - The 'In' Crowd
TTITLE8=Bo Diddley - Bo Diddley
TTITLE9=Muddy Waters - Baby Please Don't Go
TTITLE10=Elmore James - The Sun Is Shining
TTITLE11=Albert King - Calling On My Daling
TTITLE12=Irma Thomas - We Got Something Good
TTITLE13=Ben E King - Save The Last Dance For Me
TTITLE14=The Drifters - Under The Boardwalk
TTITLE15=Sugar Pie DeSanto - Soulful Dress
TTITLE16=Jimmy Witherspoon - When The Lights Go Our
TTITLE17=Lowell Fulson - Reconsider Baby
EXTD=
EXTT0=
EXTT1=
EXTT2=
EXTT3=
EXTT4=
EXTT5=
EXTT6=
EXTT7=
EXTT8=
EXTT9=
EXTT10=
EXTT11=
EXTT12=
EXTT13=
EXTT14=
EXTT15=
EXTT16=
EXTT17=
PLAYORDER=
